<!-- by TradingView --><svg width="18" height="18" viewBox="0 0 18 18" fill="none" xmlns="http://www.w3.org/2000/svg">
<rect width="18" height="18" fill="#06806B"/>
<path fill-rule="evenodd" clip-rule="evenodd" d="M9.5 4H8.5V4.76475C8.19448 4.81035 7.90834 4.89382 7.64158 5.01517C7.21698 5.20686 6.87838 5.47683 6.62577 5.8251C6.37584 6.17067 6.25088 6.57563 6.25088 7.03998C6.25088 7.59883 6.439 8.05104 6.81522 8.39661C7.19145 8.74217 7.70205 9.0081 8.34701 9.19438L8.5 9.23829V12.3302C8.35263 12.3059 8.21027 12.2704 8.0729 12.2235C7.79073 12.1236 7.55693 11.9724 7.3715 11.7699C7.18876 11.5648 7.08396 11.3056 7.05708 10.9924H6.02515C6.05739 11.446 6.19579 11.8442 6.44034 12.187C6.68758 12.5299 7.02618 12.7972 7.45615 12.9889C7.76398 13.1252 8.11192 13.2131 8.5 13.2525V14H9.5V13.2515C9.9191 13.2087 10.2886 13.1103 10.6084 12.9565C11.0545 12.7432 11.3931 12.4557 11.6242 12.0939C11.858 11.7321 11.9749 11.3272 11.9749 10.879C11.9749 10.4903 11.8956 10.1622 11.7371 9.89497C11.5785 9.62769 11.377 9.40901 11.1324 9.23893C10.8906 9.06614 10.6366 8.92981 10.3706 8.82992C10.1072 8.73002 9.86804 8.65173 9.65305 8.59504L9.5 8.55364V5.64996C9.80444 5.69953 10.0731 5.80111 10.3061 5.95469C10.6501 6.18147 10.8462 6.50004 10.8946 6.9104H11.862C11.8486 6.49194 11.7196 6.11802 11.4751 5.78865C11.2332 5.45928 10.9054 5.20011 10.4915 5.01113C10.192 4.87239 9.86147 4.78386 9.5 4.74554V4ZM8.5 5.66412C8.35013 5.69373 8.21045 5.73659 8.08096 5.7927C7.80954 5.91149 7.59724 6.07482 7.44406 6.28271C7.29357 6.49059 7.21833 6.72681 7.21833 6.99139C7.21833 7.21277 7.27073 7.4031 7.37553 7.56238C7.48303 7.71897 7.62008 7.84991 7.7867 7.9552C7.95331 8.05779 8.12799 8.14283 8.31073 8.21032C8.37569 8.23336 8.43878 8.25485 8.5 8.27482V5.66412ZM9.5 9.52569V12.3288C9.68441 12.2979 9.8577 12.2493 10.0199 12.183C10.3235 12.0561 10.5641 11.8806 10.7414 11.6565C10.9188 11.4298 11.0075 11.1652 11.0075 10.8628C11.0075 10.5874 10.9309 10.3634 10.7777 10.1906C10.6245 10.0178 10.423 9.87742 10.1731 9.76943C9.96295 9.67864 9.7386 9.5974 9.5 9.52569Z" fill="white"/>
</svg>
